<svg width="452" height="247" viewBox="0 0 452 247" fill="none" xmlns="http://www.w3.org/2000/svg">
<path d="M293.447 85.3501L295.354 41.6812C295.424 40.1375 297.013 38.806 299.379 38.3815C304.253 37.5131 313.646 36.3553 327.629 36.8763C338.011 37.2623 344.332 38.3622 347.793 39.2112C349.982 39.7516 351.359 41.1216 351.289 42.6075L349.382 86.3342L293.447 85.3501Z" fill="#356477"/>
<path d="M347.793 39.2112C344.332 38.3622 338.011 37.2816 327.629 36.8763C313.646 36.3553 304.252 37.5131 299.379 38.3815C297.049 38.806 295.424 40.1375 295.354 41.6812L294.859 52.9699C295.177 52.8927 295.46 52.7769 295.778 52.7191C301.11 51.8507 311.386 50.7122 326.747 51.2718C338.153 51.677 345.074 52.7769 348.888 53.6453C349.594 53.7997 350.194 54.0505 350.759 54.34L351.253 42.5882C351.324 41.1216 349.982 39.7323 347.793 39.2112Z" fill="#F44336"/>
<path d="M181.965 74.3509L184.155 23.0791C184.225 21.6125 186.097 20.3582 188.816 19.953C194.431 19.1232 205.342 18.0233 221.551 18.525C233.592 18.8916 240.902 19.9337 244.963 20.7441C247.505 21.2459 249.094 22.558 249.024 23.9667L246.799 75.2964L181.965 74.3509Z" fill="#356477"/>
<path d="M244.963 20.7441C240.937 19.9337 233.628 18.9109 221.551 18.525C205.307 18.0233 194.431 19.1232 188.816 19.953C186.097 20.3582 184.225 21.6125 184.155 23.0791L183.59 33.7888C183.943 33.7116 184.261 33.5959 184.684 33.5573C190.864 32.7275 202.8 31.6469 220.597 32.1872C233.839 32.5731 241.855 33.6152 246.269 34.4256C247.082 34.58 247.788 34.8116 248.423 35.0817L249.024 23.9474C249.094 22.558 247.505 21.2459 244.963 20.7441Z" fill="#F44336"/>
<path d="M303.723 51.7542C308.49 51.3297 314.705 51.0402 322.297 51.1753V36.7605C314.317 36.6833 308.137 37.1658 303.723 37.7254V51.7542Z" fill="#FF7555"/>
<path d="M194.325 32.6117C199.233 32.2644 205.448 32.0328 212.899 32.0714V18.4092C205.13 18.4285 198.915 18.8145 194.325 19.2776V32.6117Z" fill="#FF7555"/>
<path d="M191.853 142.044L190.37 158.254L68.012 155.224L68.9301 142.044C68.9301 142.044 96.4032 119.969 96.4032 74.5824L211.381 70.8388C211.381 70.8388 216.854 77.2454 212.758 96.2914C205.907 128.575 191.853 142.044 191.853 142.044Z" fill="#EEEEEE"/>
<path d="M211.769 86.3728L95.5911 87.9166C95.238 90.5988 94.8142 93.1846 94.3198 95.6546L211.134 94.5547L211.769 86.3728Z" fill="#82AEC0"/>
<path d="M210.109 110.089L90.0822 110.282C89.0229 113.041 87.8929 115.627 86.7275 118.02H207.108L210.109 110.089Z" fill="#82AEC0"/>
<path d="M194.078 133.091L77.4051 132.956C74.5095 136.66 72.0023 139.227 70.4839 140.655L186.026 140.79C186.062 140.79 192.312 135.638 194.078 133.091Z" fill="#82AEC0"/>
<path d="M185.603 142.141L417.712 156.903L421.667 132.627L382.328 129.926L389.462 87.1061L211.84 71.2827C213.182 118.676 191.888 136.525 185.603 140.809V142.141Z" fill="#82AEC0"/>
<path d="M387.308 99.8613L211.451 86.3149C211.451 86.3149 210.745 92.4899 210.357 94.6125L386.036 107.58L387.308 99.8613Z" fill="#365666"/>
<path d="M382.293 129.926L383.564 122.304L206.755 110.108C205.801 112.81 204.848 115.646 203.753 117.981L382.293 129.926Z" fill="#365666"/>
<path d="M194.078 133.091C190.864 136.448 187.192 139.497 185.532 140.809L185.497 141.099L417.994 155.031L419.23 147.332L194.078 133.091Z" fill="#365666"/>
<path d="M373.677 106.654L375.301 98.9351L368.309 98.3948L366.685 106.133L351.501 105.014L353.16 97.2177L346.169 96.6773L344.509 104.493L329.324 103.373L330.984 95.5195L323.992 94.9792L322.333 102.852L307.148 101.733L308.808 93.8021L301.816 93.2618L300.121 101.212L284.937 100.093L286.632 92.104L279.64 91.5637L277.945 99.5912L262.76 98.472L264.455 90.4059L257.464 89.8656L255.769 97.9509L240.584 96.8317L242.314 88.6884L235.323 88.1481L233.592 96.3107L210.109 94.574C210.109 94.574 209.827 96.2721 209.756 97.3141C209.686 98.3562 209.403 100.363 209.403 100.363L385.083 113.253L386.036 107.541L373.677 106.654Z" fill="#EEEEEE"/>
<path d="M388.72 91.39L211.31 76.6472L211.381 70.8195L389.709 85.5623L388.72 91.39Z" fill="#EEEEEE"/>
<path d="M370.04 129.096L371.523 121.493L364.531 121.011L363.048 128.614L347.864 127.591L349.347 119.969L342.355 119.486L340.872 127.109L325.687 126.086L327.17 118.444L320.179 117.962L318.695 125.603L303.511 124.581L304.994 116.92L298.002 116.437L296.519 124.098L281.335 123.075L282.818 115.415L275.826 114.932L274.343 122.612L259.159 121.59L260.642 113.909L253.65 113.427L252.167 121.107L236.982 120.084L238.465 112.385L231.332 111.922L229.814 119.621L203.789 117.981C203.789 117.981 203.082 119.332 200.928 123.481L420.713 138.416L421.702 132.589L370.04 129.096Z" fill="#EEEEEE"/>
<path d="M402.739 153.989L404.222 146.386L397.23 145.942L395.712 153.565L379.362 152.523L380.845 144.9L373.853 144.456L372.335 152.079L355.985 151.056L357.504 143.434L350.477 142.99L348.958 150.612L332.608 149.589L334.127 141.948L327.1 141.504L325.581 149.146L309.232 148.123L310.75 140.462L303.723 140.018L302.204 147.679L285.855 146.656L287.373 138.995L280.346 138.552L278.828 146.212L262.478 145.17L263.996 137.51L256.969 137.066L255.451 144.746L239.101 143.704L240.619 136.024L233.592 135.58L232.074 143.26L215.724 142.237L217.243 134.557L210.215 134.094L208.697 141.793L185.461 140.79L183.166 159.682L415.24 172.649L418.029 154.973L402.739 153.989Z" fill="#EEEEEE"/>
<path d="M21.7172 152.368C21.7172 152.368 14.231 152.175 14.9019 156.208C14.9019 156.208 6.10909 188.241 30.4747 210.239C53.8869 231.35 86.2685 239.281 100.711 239.281H384.836C402.563 239.281 420.96 231.987 427.317 221.161C432.296 212.652 436.71 181.892 437.628 172.514C437.769 171.009 435.686 169.716 432.931 169.6C432.931 169.6 175.609 152.156 21.7172 152.368Z" fill="#356477"/>
<path d="M436.039 185.134C436.039 185.134 167.593 175.119 13.6306 175.814L13.5599 164.93C168.299 164.216 433.991 180.04 436.71 180.156L436.039 185.134Z" fill="#F44336"/>
<path d="M68.4357 151.152L68.1885 152.754C196.267 154.78 362.2 165.046 415.911 168.5L416.511 164.641C377.597 162.152 279.958 156.247 180.623 152.368C142.415 150.882 68.4357 151.152 68.4357 151.152Z" fill="#82AEC0"/>
</svg>
