<svg width="452" height="247" viewBox="0 0 452 247" fill="none" xmlns="http://www.w3.org/2000/svg">
<path d="M158.553 85.3501L156.646 41.6812C156.576 40.1375 154.987 38.806 152.621 38.3815C147.748 37.5131 138.354 36.3553 124.371 36.8763C113.989 37.2623 107.668 38.3622 104.207 39.2112C102.018 39.7516 100.641 41.1216 100.711 42.6075L102.618 86.3342L158.553 85.3501Z" fill="#356477"/>
<path d="M104.207 39.2112C107.668 38.3622 113.989 37.2816 124.371 36.8763C138.354 36.3553 147.748 37.5131 152.621 38.3815C154.951 38.806 156.576 40.1375 156.646 41.6812L157.141 52.9699C156.823 52.8927 156.54 52.7769 156.222 52.7191C150.89 51.8507 140.614 50.7122 125.253 51.2718C113.847 51.677 106.926 52.7769 103.112 53.6453C102.406 53.7997 101.806 54.0505 101.241 54.34L100.747 42.5882C100.676 41.1216 102.018 39.7323 104.207 39.2112Z" fill="#F44336"/>
<path d="M270.035 74.3509L267.845 23.0791C267.775 21.6125 265.903 20.3582 263.184 19.953C257.569 19.1232 246.658 18.0233 230.449 18.525C218.408 18.8916 211.098 19.9337 207.037 20.7441C204.495 21.2459 202.906 22.558 202.976 23.9667L205.201 75.2964L270.035 74.3509Z" fill="#356477"/>
<path d="M207.037 20.7441C211.063 19.9337 218.372 18.9109 230.449 18.525C246.693 18.0233 257.569 19.1232 263.184 19.953C265.903 20.3582 267.775 21.6125 267.845 23.0791L268.41 33.7888C268.057 33.7116 267.739 33.5959 267.316 33.5573C261.136 32.7275 249.2 31.6469 231.403 32.1872C218.161 32.5731 210.145 33.6152 205.731 34.4256C204.918 34.58 204.212 34.8116 203.577 35.0817L202.976 23.9474C202.906 22.558 204.495 21.2459 207.037 20.7441Z" fill="#F44336"/>
<path d="M148.277 51.7542C143.51 51.3297 137.295 51.0402 129.703 51.1753V36.7605C137.683 36.6833 143.863 37.1658 148.277 37.7254V51.7542Z" fill="#FF7555"/>
<path d="M257.675 32.6117C252.767 32.2644 246.552 32.0328 239.101 32.0714V18.4092C246.87 18.4285 253.085 18.8145 257.675 19.2776V32.6117Z" fill="#FF7555"/>
<path d="M260.147 142.044L261.63 158.254L383.988 155.224L383.07 142.044C383.07 142.044 355.597 119.969 355.597 74.5824L240.619 70.8388C240.619 70.8388 235.146 77.2454 239.242 96.2914C246.093 128.575 260.147 142.044 260.147 142.044Z" fill="#EEEEEE"/>
<path d="M240.231 86.3728L356.409 87.9166C356.762 90.5988 357.186 93.1846 357.68 95.6546L240.867 94.5547L240.231 86.3728Z" fill="#82AEC0"/>
<path d="M241.891 110.089L361.918 110.282C362.977 113.041 364.107 115.627 365.273 118.02H244.892L241.891 110.089Z" fill="#82AEC0"/>
<path d="M257.923 133.091L374.595 132.956C377.491 136.66 379.998 139.227 381.516 140.655L265.974 140.79C265.938 140.79 259.688 135.638 257.923 133.091Z" fill="#82AEC0"/>
<path d="M266.398 142.141L34.2885 156.903L30.3334 132.627L69.6716 129.926L62.5385 87.1061L240.16 71.2827C238.818 118.676 260.112 136.525 266.398 140.809V142.141Z" fill="#82AEC0"/>
<path d="M64.6925 99.8613L240.549 86.3149C240.549 86.3149 241.255 92.4899 241.643 94.6125L65.9637 107.58L64.6925 99.8613Z" fill="#365666"/>
<path d="M69.7069 129.926L68.4356 122.304L245.245 110.108C246.199 112.81 247.152 115.646 248.247 117.981L69.7069 129.926Z" fill="#365666"/>
<path d="M257.923 133.091C261.136 136.448 264.808 139.497 266.468 140.809L266.503 141.099L34.006 155.031L32.77 147.332L257.923 133.091Z" fill="#365666"/>
<path d="M78.3231 106.654L76.6987 98.9351L83.6906 98.3948L85.315 106.133L100.499 105.014L98.8397 97.2177L105.832 96.6773L107.491 104.493L122.676 103.373L121.016 95.5195L128.008 94.9792L129.667 102.852L144.852 101.733L143.192 93.8021L150.184 93.2618L151.879 101.212L167.063 100.093L165.368 92.104L172.36 91.5637L174.055 99.5912L189.24 98.472L187.545 90.4059L194.537 89.8656L196.232 97.9509L211.416 96.8317L209.686 88.6884L216.677 88.1481L218.408 96.3107L241.891 94.574C241.891 94.574 242.173 96.2721 242.244 97.3141C242.314 98.3562 242.597 100.363 242.597 100.363L66.9172 113.253L65.9637 107.541L78.3231 106.654Z" fill="#EEEEEE"/>
<path d="M63.28 91.39L240.69 76.6472L240.619 70.8195L62.2913 85.5623L63.28 91.39Z" fill="#EEEEEE"/>
<path d="M81.9603 129.096L80.4772 121.493L87.4691 121.011L88.9522 128.614L104.137 127.591L102.653 119.969L109.645 119.486L111.128 127.109L126.313 126.086L124.83 118.444L131.822 117.962L133.305 125.603L148.489 124.581L147.006 116.92L153.998 116.437L155.481 124.098L170.665 123.075L169.182 115.415L176.174 114.932L177.657 122.612L192.842 121.59L191.358 113.909L198.35 113.427L199.833 121.107L215.018 120.084L213.535 112.385L220.668 111.922L222.186 119.621L248.212 117.981C248.212 117.981 248.918 119.332 251.072 123.481L31.2869 138.416L30.2982 132.589L81.9603 129.096Z" fill="#EEEEEE"/>
<path d="M49.261 153.989L47.7779 146.386L54.7698 145.942L56.2882 153.565L72.6379 152.523L71.1548 144.9L78.1466 144.456L79.6651 152.079L96.0148 151.056L94.4963 143.434L101.523 142.99L103.042 150.612L119.392 149.589L117.873 141.948L124.9 141.504L126.419 149.146L142.768 148.123L141.25 140.462L148.277 140.018L149.796 147.679L166.145 146.656L164.627 138.995L171.654 138.552L173.173 146.212L189.522 145.17L188.004 137.51L195.031 137.066L196.549 144.746L212.899 143.704L211.381 136.024L218.408 135.58L219.926 143.26L236.276 142.237L234.758 134.557L241.785 134.094L243.303 141.793L266.539 140.79L268.834 159.682L36.7604 172.649L33.9707 154.973L49.261 153.989Z" fill="#EEEEEE"/>
<path d="M430.283 152.368C430.283 152.368 437.769 152.175 437.098 156.208C437.098 156.208 445.891 188.241 421.525 210.239C398.113 231.35 365.732 239.281 351.289 239.281H67.1644C49.4375 239.281 31.0397 231.987 24.6834 221.161C19.7044 212.652 15.2903 181.892 14.3722 172.514C14.231 171.009 16.3144 169.716 19.0688 169.6C19.0688 169.6 276.391 152.156 430.283 152.368Z" fill="#356477"/>
<path d="M15.9613 185.134C15.9613 185.134 284.407 175.119 438.369 175.814L438.44 164.93C283.701 164.216 18.0094 180.04 15.2903 180.156L15.9613 185.134Z" fill="#F44336"/>
<path d="M383.564 151.152L383.812 152.754C255.733 154.78 89.7997 165.046 36.0894 168.5L35.4891 164.641C74.4035 162.152 172.043 156.247 271.377 152.368C309.585 150.882 383.564 151.152 383.564 151.152Z" fill="#82AEC0"/>
</svg>
