<svg width="1920" height="230" viewBox="0 0 1920 230" fill="none" xmlns="http://www.w3.org/2000/svg">
<path d="M0 0L23 7.40002C46 14.6 92 29.4 137.6 27.4C183.4 25.4 228.6 6.6 274.4 19C320 31.4 366 74.6 411.6 83.6C457.4 92.6 502.6 67.4 548.4 48C594 28.6 640 15.4 685.6 29.4C731.4 43.4 776.6 84.6 822.4 91.4C868 98 914 70 960 73.4C1006 76.6 1052 111.4 1097.6 104.6C1143.4 98 1188.6 50 1234.4 27.6C1280 5.39997 1326 8.6 1371.6 14C1417.4 19.4 1462.6 26.6 1508.4 37.6C1554 48.6 1600 63.4 1645.6 62.6C1691.4 62 1736.6 46 1782.4 41.4C1828 36.6 1874 43.4 1897 46.6L1920 50V232H1897C1874 232 1828 232 1782.4 232C1736.6 232 1691.4 232 1645.6 232C1600 232 1554 232 1508.4 232C1462.6 232 1417.4 232 1371.6 232C1326 232 1280 232 1234.4 232C1188.6 232 1143.4 232 1097.6 232C1052 232 1006 232 960 232C914 232 868 232 822.4 232C776.6 232 731.4 232 685.6 232C640 232 594 232 548.4 232C502.6 232 457.4 232 411.6 232C366 232 320 232 274.4 232C228.6 232 183.4 232 137.6 232C92 232 46 232 23 232H0V0Z" fill="#0066FF"/>
</svg>
